<?xml version="1.0" encoding="utf-8"?>
<!-- Generator: Adobe Illustrator 15.0.0, SVG Export Plug-In . SVG Version: 6.00 Build 0)  -->
<!DOCTYPE svg PUBLIC "-//W3C//DTD SVG 1.1//EN" "http://www.w3.org/Graphics/SVG/1.1/DTD/svg11.dtd">
<svg version="1.1" id="Calque_1" xmlns="http://www.w3.org/2000/svg" xmlns:xlink="http://www.w3.org/1999/xlink" x="0px" y="0px"
	 width="100%" height="100%" viewBox="0 0 24 24" enable-background="new 0 0 24 24" xml:space="preserve">
<g id="Calque_1_1_" display="none">
	<g display="inline">
		<rect id="Calendar_3_" x="-26.365" y="0.045" fill="none" width="23.897" height="23.898"/>
		<g>
			<path id="calendar_3_" fill="#2196F3" d="M-9.534,17.623h-9.839V9.892h9.839 M-11.64,4.971v1.406h-5.623V4.971h-1.406v1.406
				h-0.703c-0.777,0-1.398,0.629-1.398,1.405l-0.008,9.841c0,0.777,0.629,1.406,1.406,1.406h9.839c0.775,0,1.406-0.629,1.406-1.406
				V7.782c0-0.776-0.631-1.405-1.406-1.405h-0.703V4.971 M-10.938,12.703h-3.515v3.516h3.515V12.703z"/>
			<rect x="-14.453" y="12.678" fill="#FFC107" width="3.63" height="3.631"/>
		</g>
	</g>
</g>
<g id="Calque_2">
	<g>
		<rect id="Calendar" x="0.051" y="0.045" fill="none" width="23.897" height="23.898"/>
		<g id="logo-sur-fond-blanc_-_copie_1_">
			<g id="XMLID_2_">
				<g>
					<path id="XMLID_3_" fill="#05B1FF" d="M12.753,10.152l-0.447,1.036c0.865,0.376,1.286,1.365,0.938,2.205l-1.402,3.422
						c-0.383,0.875-1.348,1.304-2.196,0.929c-0.875-0.375-1.268-1.357-0.928-2.197l0.804-1.954l-1.045-0.429l-0.803,1.954
						c-0.58,1.41,0.107,3.044,1.518,3.66c1.429,0.625,3.063-0.116,3.669-1.525c0,0,0.01,0,0.01-0.009l1.4-3.429
						c0.287-0.707,0.26-1.476-0.017-2.133C13.993,11.027,13.458,10.465,12.753,10.152z"/>
				</g>
			</g>
			<path id="XMLID_1_" fill="#50C9FF" d="M14.717,5.224c-1.429-0.625-3.063,0.116-3.669,1.528L9.646,10.18
				c-0.581,1.411,0.116,3.062,1.526,3.669l0.447-1.037c-0.884-0.374-1.277-1.364-0.938-2.204l1.401-3.421
				c0-0.007,0-0.007,0.009-0.017c0.384-0.866,1.349-1.286,2.187-0.921c0.867,0.376,1.277,1.357,0.93,2.196l-0.777,1.92l1.047,0.429
				l0.785-1.911c0.286-0.705,0.26-1.464-0.019-2.124C15.957,6.09,15.432,5.527,14.717,5.224z"/>
		</g>
	</g>
</g>
<g id="Calque_3" display="none">
	<g display="inline">
		<rect id="Calendar_1_" x="-26.365" y="0.045" fill="none" width="23.896" height="23.898"/>
		<g id="Logo_1_">
			<g>
				<path fill="#4A81EA" d="M-10.429,9.684c1.258,0,2.354,0.46,3.258,1.375c0.912,0.912,1.365,2.032,1.365,3.341
					c0,1.305-0.453,2.41-1.344,3.313c-0.893,0.904-1.988,1.356-3.27,1.356c-1.342,0-2.449-0.463-3.344-1.389
					c-0.891-0.927-1.332-2.033-1.332-3.303c0-0.848,0.205-1.634,0.623-2.354c0.408-0.721,0.977-1.28,1.697-1.699
					C-12.044,9.886-11.257,9.684-10.429,9.684z M-10.451,11.337c-0.828,0-1.516,0.292-2.088,0.86
					c-0.557,0.569-0.848,1.301-0.848,2.192c0,0.988,0.354,1.764,1.064,2.346c0.549,0.453,1.182,0.679,1.893,0.679
					c0.807,0,1.494-0.292,2.064-0.872c0.57-0.579,0.85-1.3,0.85-2.15c0-0.848-0.291-1.567-0.859-2.162
					C-8.935,11.64-9.623,11.337-10.451,11.337z"/>
				<g>
					<path fill="#4A81EA" d="M-18.16,15.079c0.676,0,1.225,0.546,1.225,1.226c0,0.678-0.549,1.225-1.225,1.225
						c-0.678,0-1.225-0.547-1.225-1.225C-19.375,15.625-18.828,15.079-18.16,15.079 M-18.16,14.197
						c-1.162,0-2.109,0.943-2.109,2.107c0,1.16,0.947,2.107,2.109,2.107c1.16,0,2.107-0.947,2.107-2.107
						C-16.052,15.132-16.99,14.197-18.16,14.197L-18.16,14.197z"/>
				</g>
				<g>
					<path fill="#4A81EA" d="M-18.849,6.402c1.529,0,2.775,1.246,2.775,2.773c0,1.527-1.246,2.774-2.775,2.774
						c-1.527,0-2.773-1.247-2.773-2.774C-21.623,7.638-20.376,6.402-18.849,6.402 M-18.849,4.93c-2.342,0-4.246,1.903-4.246,4.246
						c0,2.343,1.904,4.247,4.246,4.247c2.344,0,4.248-1.904,4.248-4.247C-14.601,6.822-16.505,4.93-18.849,4.93L-18.849,4.93z"/>
				</g>
			</g>
		</g>
	</g>
</g>
<g id="Calque_4" display="none">
	<g id="logo-sur-fond-blanc_-_copie_2_" display="inline">
		<g id="XMLID_5_">
			<g>
				<path id="XMLID_6_" fill="#05B1FF" d="M-13.071,8.847l-0.764,1.767c1.477,0.642,2.194,2.329,1.6,3.763l-2.394,5.84
					c-0.652,1.492-2.301,2.225-3.747,1.583c-1.492-0.639-2.164-2.315-1.584-3.749l1.372-3.335l-1.785-0.731l-1.37,3.336
					c-0.99,2.408,0.183,5.195,2.59,6.246c2.44,1.066,5.228-0.198,6.262-2.604c0,0,0.017,0,0.017-0.015l2.392-5.852
					c0.49-1.205,0.44-2.518-0.029-3.643C-10.956,10.34-11.868,9.38-13.071,8.847z"/>
			</g>
		</g>
		<path id="XMLID_4_" fill="#50C9FF" d="M-9.72,0.436c-2.438-1.067-5.227,0.198-6.264,2.608l-2.393,5.85
			c-0.99,2.408,0.199,5.225,2.605,6.262l0.764-1.77c-1.51-0.637-2.18-2.33-1.601-3.762l2.391-5.838c0-0.014,0-0.014,0.017-0.028
			c0.655-1.479,2.301-2.195,3.731-1.572c1.479,0.641,2.181,2.316,1.586,3.748l-1.327,3.276l1.786,0.732l1.339-3.262
			c0.49-1.202,0.443-2.499-0.03-3.625C-7.604,1.914-8.503,0.953-9.72,0.436z"/>
	</g>
</g>
</svg>
